<?xml version="1.0" encoding="utf-8"?><svg viewBox="0 0 150 48" xmlns="http://www.w3.org/2000/svg" xmlns:xlink="http://www.w3.org/1999/xlink"><style>:root>svg{display:none}:root>svg:target{display:block}</style><svg width="48" height="48" fill="none" viewBox="0 0 24 24" id="svg--apple-icon" xmlns="http://www.w3.org/2000/svg"><path fill-rule="evenodd" clip-rule="evenodd" d="M16.101 2a4.302 4.302 0 01-1.048 3.16 3.915 3.915 0 01-3.044 1.385 4.1 4.1 0 011.076-3.043A4.724 4.724 0 0116.1 2zm3.86 6.58c-1.388.831-2.241 2.297-2.262 3.884.002 1.795 1.105 3.415 2.801 4.114a10.15 10.15 0 01-1.457 2.893c-.858 1.251-1.758 2.474-3.186 2.497-.68.015-1.138-.175-1.616-.374-.498-.207-1.017-.422-1.83-.422-.862 0-1.404.222-1.928.437-.452.185-.89.365-1.507.39-1.36.049-2.4-1.336-3.289-2.575-1.777-2.532-3.162-7.135-1.306-10.267.872-1.526 2.501-2.495 4.292-2.551.772-.016 1.512.274 2.16.528.497.195.94.368 1.303.368.319 0 .75-.167 1.251-.36.79-.306 1.758-.68 2.743-.58a4.895 4.895 0 013.83 2.018z" fill="#000"/></svg><svg width="48" height="48" fill="none" viewBox="0 0 24 24" id="svg--facebook-icon" xmlns="http://www.w3.org/2000/svg"><circle cx="12.5" cy="12" r="10" fill="#1877F2"/><path fill-rule="evenodd" clip-rule="evenodd" d="M16.393 14.89l.443-2.89h-2.773v-1.876c0-.79.387-1.562 1.63-1.562h1.26v-2.46s-1.144-.196-2.238-.196c-2.285 0-3.777 1.385-3.777 3.89V12h-2.54v2.89h2.54v6.988a10.072 10.072 0 003.124 0v-6.987h2.33" fill="#fff"/></svg><svg width="48" height="48" fill="none" viewBox="0 0 24 24" id="svg--google-icon" xmlns="http://www.w3.org/2000/svg"><path fill-rule="evenodd" clip-rule="evenodd" d="M12 6.48c1.69 0 2.83.73 3.48 1.34l2.54-2.48C16.46 3.89 14.43 3 12 3 8.48 3 5.44 5.02 3.96 7.96l2.91 2.26C7.6 8.05 9.62 6.48 12 6.48z" fill="#EA4335"/><path fill-rule="evenodd" clip-rule="evenodd" d="M20.64 12.2c0-.74-.06-1.28-.19-1.84H12v3.34h4.96c-.1.83-.64 2.08-1.84 2.92l2.84 2.2c1.7-1.57 2.68-3.88 2.68-6.62z" fill="#4285F4"/><path fill-rule="evenodd" clip-rule="evenodd" d="M6.88 13.78a5.54 5.54 0 01-.3-1.78c0-.62.11-1.22.29-1.78L3.96 7.96A9.008 9.008 0 003 12c0 1.45.35 2.82.96 4.04l2.92-2.26z" fill="#FBBC05"/><path fill-rule="evenodd" clip-rule="evenodd" d="M12 21c2.43 0 4.47-.8 5.96-2.18l-2.84-2.2c-.76.53-1.78.9-3.12.9-2.38 0-4.4-1.57-5.12-3.74l-2.91 2.26C5.45 18.98 8.48 21 12 21z" fill="#34A853"/></svg><svg fill="none" viewBox="0 0 150 48" id="svg--logo--airSlate" xmlns="http://www.w3.org/2000/svg"><path fill-rule="evenodd" clip-rule="evenodd" d="M75.925 29.573c0 5.75-4.605 9.418-12.242 9.418-2.377 0-4.611-.313-6.653-.879-.826-.228-2.068-.717-2.883-1.052a.958.958 0 01-.54-1.196l1.404-4.158a.984.984 0 011.355-.57c.69.328 1.579.739 2.114.947 1.601.62 3.156.964 5.28.964 3.645 0 5.219-1.158 5.219-2.972 0-1.688-2.41-2.321-5.333-3.09-4.499-1.182-10.21-2.684-10.21-8.837C53.435 13.246 56.85 9 65.37 9c2.084 0 4.328.242 6.37.684.615.133 1.499.393 2.166.6.52.16.797.72.618 1.233l-1.41 4.05a.98.98 0 01-1.2.618c-.801-.235-1.942-.56-2.564-.702a16.024 16.024 0 00-3.75-.423c-4.144 0-5.219 1.274-5.219 2.663 0 1.658 2.37 2.25 5.26 2.973 4.509 1.128 10.283 2.572 10.283 8.877zm47.827-8.448a.974.974 0 00.974-.973V17.6a.974.974 0 00-.974-.974h-4.74v-2.528a.974.974 0 00-.718-.94l-4.34-1.182a.974.974 0 00-1.23.94v5.473l-.009 4.502v8.888c0 4.392 2.402 7.21 7.425 7.21.703 0 1.639-.05 2.569-.135.707-.064 1.54-.202 2.201-.325a.946.946 0 00.684-1.323l-1.109-2.498c-.196-.442-.686-.668-1.159-.57a5.398 5.398 0 01-.381.067c-.306.04-.614.063-.876.063-2.075 0-3.057-.806-3.057-2.672V21.124h4.74zM84.502 38.64a.974.974 0 00.974-.974V14.108a.974.974 0 00-.72-.94l-4.385-1.187a.974.974 0 00-1.228.94v24.745c0 .538.436.974.974.974h4.385zm-43.466-.006a.974.974 0 00.974-.974v-9.605c0-3.806 1.201-6.113 4.622-6.113.474 0 .894.032 1.287.096.106.017.233.045.367.078.52.128 1.065-.145 1.231-.654l1.312-4.007c.172-.527-.129-1.095-.671-1.207a6.708 6.708 0 00-.504-.087 9.639 9.639 0 00-1.202-.075c-2.984 0-5.46 1.464-6.988 4.246h-.11l-.48-2.85a.974.974 0 00-.96-.81h-3.19a.974.974 0 00-.974.973V37.66c0 .538.436.974.974.974h4.312zm-9.145-.937c0 .517-.42.937-.937.937h-4.496a.937.937 0 01-.937-.937V18.813c0-.424.285-.795.694-.905l4.495-1.21a.937.937 0 011.18.905v20.094zm.004-27.758a.937.937 0 00-1.18-.905l-4.492 1.21a.937.937 0 00-.693.904v2.55a.937.937 0 001.18.904l4.492-1.209a.937.937 0 00.693-.905v-2.55zm107.543 29.057c-8.624-.206-12.484-4.356-12.484-11.75 0-6.699 3.603-11.274 11.137-11.274 6.333 0 10.409 3.624 10.409 10.432 0 .453-.053 1.183-.101 1.76a.96.96 0 01-.961.875h-14.006c.328 3.258 2.512 4.686 6.77 4.686 1.866 0 2.148-.025 4.114-.498.153-.037.345-.107.541-.187.531-.217 1.155.01 1.37.542l1.144 2.831a.946.946 0 01-.609 1.273c-1.676.48-5.082 1.363-7.324 1.31zm3.485-13.8h-9.499c.291-2.855 1.601-4.21 4.841-4.21 2.839 0 4.586 1.355 4.658 4.21zm-38.13 13.438a.974.974 0 01-.949-.757l-.337-1.476C101.76 38.011 99.321 39 96.41 39c-4.768 0-7.716-2.416-7.716-7.32 0-3.954 3.093-6.919 8.953-6.919 1.93 0 3.603.293 4.986.659v-1.098c0-2.16-1.31-3.258-4.804-3.258-1.937 0-2.763.162-3.806.529-.234.082-.64.234-1.018.377a.978.978 0 01-1.251-.544l-1.186-2.904a.958.958 0 01.57-1.272c.42-.145.893-.301 1.23-.394 2.003-.553 4.18-.843 6.59-.843 7.461 0 9.899 3.22 9.899 9.224V37.66a.974.974 0 01-.974.974h-3.09zm-2.13-9.297v2.379c0 1.39-2.111 2.599-4.44 2.599-2.111 0-3.64-.732-3.64-2.746 0-1.793 1.31-2.745 4.258-2.745 1.82 0 3.167.33 3.822.512zm-85.064 9.297a.974.974 0 01-.95-.757l-.336-1.476C14.566 38.011 12.128 39 9.216 39 4.448 39 1.5 36.584 1.5 31.68c0-3.954 3.094-6.919 8.953-6.919 1.93 0 3.604.293 4.987.659v-1.098c0-2.16-1.31-3.258-4.805-3.258-1.632 0-2.474.115-3.322.37-.343.104-.97.334-1.494.532a.983.983 0 01-1.257-.544l-1.183-2.89a.957.957 0 01.58-1.275c.676-.223 1.56-.502 2.16-.64 1.739-.397 3.61-.604 5.645-.604 7.46 0 9.9 3.22 9.9 9.224V37.66a.974.974 0 01-.975.974H17.6zm-2.15-9.297v2.379c0 1.39-2.11 2.599-4.44 2.599-2.11 0-3.64-.732-3.64-2.746 0-1.793 1.311-2.745 4.26-2.745 1.819 0 3.165.33 3.82.512z" fill="#fff"/></svg></svg>
